<?xml version="1.0" standalone="no"?>
<!DOCTYPE svg PUBLIC "-//W3C//DTD SVG 20010904//EN"
 "http://www.w3.org/TR/2001/REC-SVG-20010904/DTD/svg10.dtd">
<svg version="1.0" xmlns="http://www.w3.org/2000/svg"
 width="600.000000pt" height="627.000000pt" viewBox="0 0 600.000000 627.000000"
 preserveAspectRatio="xMidYMid meet">

<g transform="translate(0.000000,627.000000) scale(0.100000,-0.100000)"
fill="#000000" stroke="none">
<path d="M123 6106 l-121 -163 67 -102 68 -102 -35 -113 -35 -113 159 -357
159 -357 154 -86 153 -86 292 25 c160 14 293 24 296 21 3 -2 8 -129 11 -281
l6 -277 -68 -210 c-37 -115 -81 -239 -96 -275 -26 -61 -28 -73 -28 -210 0
-162 15 -230 81 -364 l34 -69 -36 -292 -35 -292 196 -403 196 -403 -7 -261 -6
-261 197 -215 197 -215 -6 -65 c-3 -36 -8 -85 -12 -110 l-6 -46 528 -203 c291
-112 535 -208 541 -214 7 -5 25 -7 40 -4 16 2 268 98 562 213 l533 209 -6 45
c-4 25 -9 74 -12 110 l-6 65 197 215 197 215 -6 261 -7 261 196 403 196 403
-35 292 -36 292 34 69 c65 132 81 203 81 359 0 123 -3 147 -24 200 -12 33 -55
157 -95 275 l-72 215 6 282 c3 155 8 284 10 286 3 3 136 -7 296 -21 l292 -25
153 86 154 86 159 357 159 357 -35 113 -35 113 68 102 67 102 -121 163 -122
164 -35 -5 c-19 -3 -115 -17 -214 -30 l-178 -25 -87 -79 c-47 -44 -185 -179
-306 -301 -121 -122 -268 -266 -326 -320 l-106 -99 -467 209 -467 210 -569 0
-569 0 -467 -210 -467 -209 -106 99 c-58 54 -205 198 -326 320 -121 122 -259
257 -306 301 l-87 79 -178 25 c-99 13 -195 27 -214 30 l-35 5 -122 -164z m354
-65 c105 -17 116 -21 155 -57 87 -78 788 -736 788 -739 0 -11 -122 -351 -128
-356 -4 -4 -155 -9 -337 -13 l-330 -7 -179 308 c-99 169 -181 311 -183 315 -2
4 19 61 47 127 27 67 50 124 50 129 0 4 -29 48 -64 97 l-65 88 56 63 c31 35
61 64 67 64 6 0 62 -9 123 -19z m5236 -45 l56 -63 -64 -89 c-36 -49 -65 -91
-65 -95 0 -4 23 -61 50 -128 28 -68 49 -125 47 -129 -2 -4 -84 -146 -183 -315
l-179 -308 -330 7 c-181 4 -333 9 -337 13 -6 5 -128 345 -128 356 0 3 701 661
788 740 39 35 52 40 145 55 148 25 137 28 200 -44z m-1828 -544 l470 -178 107
-234 c58 -129 107 -249 107 -266 1 -17 -17 -165 -38 -329 -24 -182 -36 -304
-31 -310 19 -23 110 -239 141 -333 51 -158 51 -317 -2 -525 -22 -87 -48 -157
-58 -157 -3 0 -37 44 -76 96 -38 53 -75 100 -81 105 -6 5 -72 31 -147 57
l-135 49 35 -76 c252 -555 243 -531 243 -612 l-1 -74 -164 -124 c-91 -68 -169
-129 -175 -136 -6 -7 -15 -97 -21 -201 l-10 -189 49 -145 49 -145 6 100 c5 99
12 135 26 135 4 0 21 -28 37 -62 l29 -63 3 177 2 177 79 39 c43 22 101 45 130
53 28 7 51 16 51 21 0 18 -72 86 -110 103 -22 10 -40 22 -40 26 0 22 240 133
255 118 3 -3 14 -72 25 -154 l20 -149 -67 -120 c-158 -285 -340 -574 -437
-691 -73 -88 -74 -80 15 -77 l79 4 0 -44 0 -43 -134 -103 c-74 -56 -138 -102
-142 -102 -3 0 -62 36 -130 81 l-123 81 -109 -12 -109 -12 -79 -144 c-43 -79
-85 -144 -91 -144 -9 0 -13 16 -13 48 0 42 15 75 136 297 75 138 137 252 139
254 2 2 91 -13 197 -32 106 -19 194 -34 196 -32 1 1 -9 125 -23 276 l-26 274
22 283 c11 156 19 286 16 288 -8 8 -58 -21 -99 -58 -27 -24 -72 -100 -161
-268 l-124 -235 -283 -143 c-156 -78 -295 -142 -309 -142 -15 0 -154 64 -310
142 l-284 143 -126 238 c-124 234 -127 240 -193 293 l-68 55 0 -30 c0 -17 9
-150 20 -296 l21 -266 -26 -276 c-14 -152 -24 -277 -23 -278 2 -2 90 13 196
32 106 19 195 34 197 32 2 -2 64 -116 139 -254 121 -222 136 -255 136 -297 0
-32 -4 -48 -12 -48 -7 0 -49 65 -92 144 l-79 144 -109 12 -109 12 -123 -81
c-68 -45 -127 -81 -130 -81 -4 0 -68 46 -142 103 l-134 102 0 43 0 44 79 -4
c89 -3 88 -11 15 77 -97 117 -259 372 -422 666 l-81 146 19 148 c11 82 22 151
25 154 15 15 255 -96 255 -118 0 -4 -18 -16 -40 -26 -38 -17 -110 -85 -110
-103 0 -5 23 -14 51 -21 29 -8 87 -31 130 -53 l79 -39 2 -177 3 -177 29 62
c16 35 33 63 37 63 14 0 21 -36 26 -135 l6 -100 49 145 49 145 -10 189 c-6
104 -15 194 -21 201 -6 7 -84 68 -175 136 l-164 124 -1 74 c0 81 -9 57 243
612 l35 76 -135 -49 c-75 -26 -141 -52 -147 -57 -6 -5 -42 -52 -81 -105 -38
-52 -73 -96 -76 -96 -20 -1 -72 188 -90 325 -17 129 -7 241 30 357 31 94 122
310 141 333 5 6 -7 128 -31 310 -21 164 -39 312 -38 329 0 17 49 137 107 266
l107 234 465 177 465 177 420 1 420 1 470 -178z m-1380 -4448 l78 -136 -13
-104 c-7 -58 -17 -107 -21 -110 -7 -4 -25 47 -42 118 -1 4 -29 39 -62 77 l-60
70 -115 1 c-178 3 -175 -3 -63 118 l95 102 62 0 62 0 79 -136z m1287 34 c53
-57 95 -104 94 -105 -5 -5 -91 -12 -176 -13 l-95 -1 -60 -70 c-33 -38 -61 -73
-62 -77 -17 -71 -35 -122 -42 -118 -4 3 -14 52 -21 110 l-13 104 79 136 78
136 61 0 60 1 97 -103z"/>
<path d="M2986 5348 c-3 -7 -152 -683 -331 -1503 l-326 -1490 217 -213 218
-212 236 0 236 0 218 213 217 212 -329 1499 c-191 873 -333 1501 -340 1504 -7
2 -14 -2 -16 -10z"/>
<path d="M1510 2146 c0 -70 20 -120 68 -168 65 -68 102 -40 102 77 0 50 -1 52
-42 75 -24 13 -62 34 -85 47 l-43 25 0 -56z"/>
<path d="M4403 2152 l-83 -46 0 -51 c0 -121 39 -146 108 -71 47 51 65 101 60
168 l-3 46 -82 -46z"/>
</g>
</svg>
